<svg width="19" height="19" viewBox="0 0 19 19" fill="none" xmlns="http://www.w3.org/2000/svg">
<path d="M8.25384 6.37682C8.25384 6.32143 8.21691 6.26831 8.15117 6.22914C8.08544 6.18997 7.99628 6.16797 7.90331 6.16797H1.31146C1.2185 6.16797 1.12934 6.18997 1.0636 6.22914C0.997867 6.26831 0.960937 6.32143 0.960938 6.37682V10.9801H8.25384V6.37682Z" fill="white"/>
<path d="M7.50299 3.29285C7.45184 2.28596 7.17505 1.28766 6.67996 0.324463C6.53363 0.0269166 6.1023 -0.0911697 5.77176 0.0771673C4.5019 0.723899 1.71094 2.30961 1.71094 3.75442V5.49601H7.50299V3.29285Z" fill="white"/>
<path d="M8.73064 11.8418H0.487365C0.34273 11.8531 0.211184 11.8975 0.120716 11.9657C0.0302469 12.0339 -0.0120034 12.1204 0.00295317 12.2068V18.218C0.00295317 18.6499 0.467578 19.0001 1.04068 19.0001H8.17727C8.75041 19.0001 9.21505 18.6499 9.21505 18.218V12.2068C9.23001 12.1204 9.18776 12.0339 9.09729 11.9657C9.00683 11.8975 8.87528 11.8531 8.73064 11.8418ZM2.52888 17.7365C2.53562 17.7755 2.51659 17.8145 2.47582 17.8452C2.43504 17.8759 2.37576 17.896 2.31057 17.9011H1.52907C1.46388 17.896 1.40459 17.8759 1.36382 17.8452C1.32305 17.8145 1.30401 17.7755 1.31076 17.7365V13.1054C1.30401 13.0664 1.32305 13.0274 1.36382 12.9967C1.4046 12.9659 1.46388 12.9459 1.52907 12.9408H2.31057C2.37576 12.9459 2.43504 12.9659 2.47581 12.9967C2.51658 13.0274 2.53562 13.0664 2.52888 13.1054V17.7365Z" fill="white"/>
<path d="M18.993 3.21185C18.9966 3.16335 18.9966 3.11484 18.9966 3.06633C18.9966 3.01782 18.9966 2.96932 18.993 2.92081H17.5126C17.5085 2.73325 17.5009 2.5554 17.4896 2.38725H18.9612C18.9505 2.28813 18.94 2.19112 18.9222 2.09621H17.4675C17.4503 1.90318 17.4298 1.72536 17.4076 1.56475H18.816C18.7912 1.46563 18.7629 1.36862 18.7311 1.27372H17.3631C17.325 1.04704 17.2863 0.867837 17.2557 0.740141H18.5328C18.4869 0.638908 18.4373 0.541896 18.3842 0.449104H17.1859C17.1898 0.390976 17.1739 0.332983 17.1392 0.278602C17.1045 0.224222 17.0518 0.174573 16.9841 0.132635C16.9164 0.0906959 16.8353 0.0573306 16.7454 0.0345393C16.6556 0.011748 16.559 0 16.4613 0C16.3637 0 16.2671 0.011748 16.1772 0.0345393C16.0874 0.0573306 16.0062 0.0906959 15.9386 0.132635C15.8709 0.174573 15.8181 0.224222 15.7835 0.278602C15.7488 0.332983 15.7329 0.390976 15.7367 0.449104H14.3702C14.3171 0.5419 14.2676 0.638912 14.2215 0.740141H15.6669C15.6363 0.867829 15.5977 1.04703 15.5596 1.27371H14.0233C13.9915 1.3686 13.9631 1.46562 13.9384 1.56475H15.5151C15.4929 1.72535 15.4723 1.90317 15.4551 2.0962H13.8322C13.8145 2.19111 13.8039 2.28812 13.7933 2.38724H15.433C15.4221 2.5556 15.4145 2.73346 15.4101 2.9208H13.7614C13.7578 2.96931 13.7578 3.01782 13.7578 3.06632C13.7578 3.11482 13.7578 3.16334 13.7614 3.21184H15.4074C15.4076 3.38238 15.4115 3.55954 15.4189 3.74331H13.7933C13.8039 3.84242 13.8145 3.93944 13.8322 4.03435H15.4341C15.445 4.20721 15.4597 4.38506 15.4783 4.5679H13.9384C13.9631 4.66703 13.9915 4.76405 14.0233 4.85894H15.5111C15.5326 5.03285 15.5581 5.21071 15.5876 5.39252H14.2215C14.2676 5.49162 14.3171 5.58864 14.3666 5.68144H15.6375C15.6648 5.83044 15.694 5.98097 15.7272 6.13452C15.9449 7.14126 15.909 12.2283 15.8925 13.7944H15.7846C15.7151 13.7944 15.6485 13.8109 15.5994 13.8401C15.5503 13.8694 15.5227 13.909 15.5227 13.9504V14.254H14.7929C14.7063 14.254 14.6232 14.2745 14.5619 14.311C14.5006 14.3476 14.4662 14.3971 14.4662 14.4487V18.8107C14.4662 18.8607 14.4995 18.9086 14.5589 18.944C14.6182 18.9793 14.6987 18.9992 14.7826 18.9992H18.14C18.2239 18.9992 18.3044 18.9793 18.3638 18.944C18.4231 18.9086 18.4564 18.8607 18.4564 18.8107V14.4487C18.4564 14.3971 18.422 14.3476 18.3607 14.3111C18.2995 14.2745 18.2164 14.254 18.1297 14.254H17.3999V13.9504C17.3999 13.9299 17.3931 13.9097 17.38 13.8907C17.3668 13.8718 17.3475 13.8546 17.3232 13.8401C17.2989 13.8256 17.27 13.8142 17.2382 13.8063C17.2065 13.7985 17.1724 13.7945 17.1381 13.7945H17.0301C17.0136 12.2284 16.9777 7.14127 17.1954 6.13452C17.2286 5.98098 17.2578 5.83045 17.2851 5.68145H18.3878C18.4373 5.58865 18.4869 5.49163 18.5328 5.39252H17.335C17.3645 5.21088 17.39 5.03302 17.4115 4.85895H18.7311C18.763 4.76404 18.7913 4.66702 18.816 4.56791H17.4443C17.463 4.38515 17.4778 4.2073 17.4886 4.03435H18.9222C18.94 3.93944 18.9505 3.84242 18.9612 3.74332H17.5037C17.5114 3.55966 17.5152 3.3825 17.5152 3.21185H18.993Z" fill="white"/>
</svg>
