<svg width="20" height="20" viewBox="0 0 20 20" fill="none" xmlns="http://www.w3.org/2000/svg">
<path d="M16.1474 7.90218L19.7372 7.16145L17.6104 2.86103C17.3295 2.29282 16.8338 1.84934 16.2247 1.6212L12.5577 0.248047C12.0449 0.741862 11.2756 1.23568 9.99358 1.23568C8.71153 1.23568 7.9423 0.741862 7.42948 0.248047L3.76245 1.6212C3.15335 1.84934 2.65769 2.29282 2.37674 2.86103L0.25 7.16145L3.83974 7.90218L4.86538 12.5934L3.07051 19.7537H16.9166L15.1218 12.5934L16.1474 7.90218Z" fill="white"/>
<path d="M12.5657 0.248047C12.5657 0.902886 12.2956 1.5309 11.8147 1.99395C11.3338 2.45699 10.6816 2.71712 10.0016 2.71712C9.32156 2.71712 8.66937 2.45699 8.18851 1.99395C7.70765 1.5309 7.4375 0.902886 7.4375 0.248047C7.95032 0.741862 8.71955 1.23568 10.0016 1.23568C11.2836 1.23568 12.0529 0.741862 12.5657 0.248047Z" fill="white"/>
<path d="M19.9751 7.05465L17.8484 2.75415C17.5402 2.12857 16.9947 1.64056 16.3242 1.39056L12.657 0.0172924C12.6114 -0.000198184 12.5615 -0.00450884 12.5134 0.00488829C12.4653 0.0142854 12.4211 0.0369826 12.3862 0.0702011C12.3852 0.0711535 12.3838 0.0718588 12.3828 0.0728464C11.9748 0.465747 11.2838 0.988132 10 0.988132C9.38516 0.988132 8.4692 0.893249 7.61722 0.0728112C7.61616 0.0718236 7.61484 0.0711181 7.61377 0.0701657C7.57887 0.0369472 7.53466 0.0142502 7.48656 0.00485303C7.43846 -0.0045441 7.38856 -0.000233572 7.34297 0.017257L3.67583 1.39056C3.00529 1.64056 2.45978 2.12857 2.15159 2.75415L0.0249221 7.05465C0.00827181 7.0883 -0.000246812 7.12516 5.44313e-06 7.16244C0.000257698 7.19972 0.00927433 7.23646 0.0263787 7.26991C0.043483 7.30335 0.0682309 7.33264 0.0987659 7.35556C0.129301 7.37848 0.16483 7.39445 0.202687 7.40226L3.62957 8.10936L4.60894 12.589L2.82785 19.6951C2.81875 19.7314 2.81831 19.7692 2.82658 19.8057C2.83485 19.8422 2.8516 19.8764 2.87558 19.9058C2.89956 19.9351 2.93013 19.9588 2.96501 19.9752C2.99989 19.9915 3.03815 20 3.07693 20H16.9231C16.9618 20 17.0001 19.9915 17.035 19.9752C17.0699 19.9588 17.1004 19.9351 17.1244 19.9058C17.1484 19.8764 17.1651 19.8422 17.1734 19.8057C17.1817 19.7692 17.1812 19.7314 17.1721 19.6951L15.3911 12.5893L16.3704 8.10965L19.7973 7.40254C19.8352 7.39473 19.8707 7.37876 19.9012 7.35584C19.9318 7.33292 19.9565 7.30364 19.9736 7.27019C19.9907 7.23674 19.9997 7.2 20 7.16272C20.0002 7.12544 19.9917 7.08859 19.9751 7.05493V7.05465ZM12.2215 0.847395C12.0858 1.31419 11.7952 1.72541 11.394 2.01834C10.9929 2.31126 10.5033 2.46982 9.99992 2.46982C9.49651 2.46982 9.00691 2.31126 8.6058 2.01834C8.20469 1.72541 7.91409 1.31419 7.77832 0.847395C8.40952 1.27338 9.14201 1.48195 10 1.48195C10.858 1.48195 11.5905 1.27338 12.2215 0.847395ZM16.3805 7.60225L16.1526 5.40777C16.1495 5.37529 16.1398 5.3437 16.124 5.31485C16.1082 5.28599 16.0866 5.26044 16.0605 5.23966C16.0344 5.21888 16.0043 5.2033 15.9718 5.1938C15.9394 5.1843 15.9054 5.18108 15.8717 5.18432C15.838 5.18757 15.8053 5.19721 15.7755 5.2127C15.7456 5.22818 15.7193 5.2492 15.698 5.27455C15.6767 5.29989 15.6608 5.32905 15.6512 5.36034C15.6416 5.39164 15.6386 5.42445 15.6423 5.45687L15.8948 7.88796L14.8773 12.5419C14.8694 12.5779 14.87 12.615 14.8789 12.6507L16.5974 19.5062H3.40261L5.12107 12.6507C5.13 12.615 5.13056 12.5779 5.12272 12.5419L4.10525 7.8881L4.3577 5.45701C4.36139 5.42459 4.35836 5.39178 4.3488 5.36048C4.33925 5.32919 4.32334 5.30003 4.30201 5.27469C4.28068 5.24934 4.25435 5.22832 4.22454 5.21284C4.19472 5.19735 4.16202 5.18771 4.12831 5.18446C4.0946 5.18122 4.06056 5.18444 4.02815 5.19394C3.99574 5.20344 3.96561 5.21903 3.9395 5.2398C3.91338 5.26058 3.8918 5.28613 3.876 5.31499C3.8602 5.34384 3.85049 5.37543 3.84744 5.40792L3.61953 7.60225L0.627412 6.98498L2.61459 2.96657C2.86675 2.45473 3.31307 2.05545 3.86169 1.8509L7.20308 0.599606C7.29192 1.25338 7.62469 1.85371 8.13931 2.28864C8.65394 2.72356 9.31528 2.96339 10 2.96339C10.6847 2.96339 11.3461 2.72356 11.8607 2.28864C12.3753 1.85371 12.7081 1.25338 12.7969 0.599606L16.1383 1.8509C16.6869 2.05545 17.1332 2.45473 17.3854 2.96657L19.3726 6.98498L16.3805 7.60225Z" fill="white"/>
</svg>
