<svg width="20" height="20" viewBox="0 0 20 20" fill="none" xmlns="http://www.w3.org/2000/svg">
<path d="M7 12.2218C8.10457 12.2218 9 11.2269 9 9.99957C9 8.77227 8.10457 7.77734 7 7.77734C5.89543 7.77734 5 8.77227 5 9.99957C5 11.2269 5.89543 12.2218 7 12.2218Z" fill="white"/>
<path d="M0 18.8889H2V20H4V18.8889H16V20H18V18.8889H20V0H0V18.8889ZM14 4.44444H16V14.4444H14V4.44444ZM6 5.71111V4.44444H8V5.71111C8.94266 5.98155 9.76419 6.6247 10.3106 7.52001C10.857 8.41532 11.0908 9.50132 10.9681 10.5744C10.8454 11.6476 10.3747 12.6341 9.64423 13.3492C8.91373 14.0643 7.97357 14.4589 7 14.4589C6.02643 14.4589 5.08627 14.0643 4.35577 13.3492C3.62526 12.6341 3.15456 11.6476 3.03188 10.5744C2.90921 9.50132 3.14299 8.41532 3.6894 7.52001C4.23581 6.6247 5.05734 5.98155 6 5.71111Z" fill="white"/>
</svg>
