<svg width="30" height="30" viewBox="0 0 30 30" fill="none" xmlns="http://www.w3.org/2000/svg">
<path d="M27.5792 13.7598V12.9567C27.5792 5.81102 21.7634 0 14.6192 0C7.47491 0 1.65912 5.81102 1.65912 12.9567V14.0846C0.667192 14.6634 0 15.7323 0 16.9606V19.5C0 21.3366 1.4938 22.8307 3.33005 22.8307H5.66818C6.12871 22.8307 6.50069 22.4587 6.50069 21.998V14.4626C6.50069 14.002 6.12871 13.6299 5.66818 13.6299H3.33005H3.32415V12.9567C3.32415 6.73228 8.39008 1.66535 14.6133 1.66535C20.8364 1.66535 25.9024 6.73228 25.9024 12.9567V13.6299H24.3259C23.8654 13.6299 23.4934 14.002 23.4934 14.4626V22.0039C23.4934 22.4646 23.8654 22.8366 24.3259 22.8366H25.4536V24.6791C25.4536 25.7185 24.6093 26.563 23.5702 26.563H17.5064C17.099 25.5354 15.9595 24.7913 14.6192 24.7913C12.9364 24.7913 11.5725 25.9606 11.5725 27.3957C11.5725 28.8307 12.9423 30 14.6192 30C15.9595 30 17.099 29.2559 17.5064 28.2283H23.5761C25.5304 28.2283 27.1246 26.6339 27.1246 24.6791V22.8012C28.7424 22.5768 30 21.1831 30 19.5059V16.9665C29.9941 15.4429 28.9726 14.1614 27.5792 13.7598ZM4.83566 15.2953V21.1713H3.33005C2.40897 21.1713 1.66503 20.4213 1.66503 19.5059V16.9665C1.66503 16.0453 2.41488 15.3012 3.33005 15.3012H4.83566V15.2953ZM14.6192 28.3346C13.8693 28.3346 13.2376 27.9035 13.2376 27.3957C13.2376 26.8878 13.8693 26.4567 14.6192 26.4567C15.369 26.4567 16.0008 26.8878 16.0008 27.3957C16.0008 27.9035 15.369 28.3346 14.6192 28.3346ZM28.3291 19.5059C28.3291 20.4272 27.5792 21.1713 26.664 21.1713H25.1643V15.2953H26.664C27.5851 15.2953 28.3291 16.0453 28.3291 16.9606V19.5059Z" fill="#274927"/>
</svg>
