<svg width="14" height="14" viewBox="0 0 14 14" fill="none" xmlns="http://www.w3.org/2000/svg">
<path d="M1.75391 6.54492V9.16409C1.75391 11.7833 2.80391 12.8333 5.42307 12.8333H8.56724C11.1864 12.8333 12.2364 11.7833 12.2364 9.16409V6.54492" stroke="white" stroke-linecap="round" stroke-linejoin="round"/>
<path d="M7.00158 6.99935C8.06908 6.99935 8.85658 6.13018 8.75158 5.06268L8.36658 1.16602H5.64241L5.25158 5.06268C5.14658 6.13018 5.93408 6.99935 7.00158 6.99935Z" stroke="white" stroke-linecap="round" stroke-linejoin="round"/>
<path d="M10.679 6.99935C11.8573 6.99935 12.7207 6.04268 12.604 4.87018L12.4407 3.26602C12.2307 1.74935 11.6473 1.16602 10.119 1.16602H8.33984L8.74818 5.25518C8.84734 6.21768 9.71651 6.99935 10.679 6.99935Z" stroke="white" stroke-linecap="round" stroke-linejoin="round"/>
<path d="M3.29103 6.99935C4.25353 6.99935 5.1227 6.21768 5.21603 5.25518L5.34436 3.96602L5.62436 1.16602H3.8452C2.31686 1.16602 1.73353 1.74935 1.52353 3.26602L1.36603 4.87018C1.24936 6.04268 2.1127 6.99935 3.29103 6.99935Z" stroke="white" stroke-linecap="round" stroke-linejoin="round"/>
<path d="M7.0013 9.91602C6.02714 9.91602 5.54297 10.4002 5.54297 11.3743V12.8327H8.45964V11.3743C8.45964 10.4002 7.97547 9.91602 7.0013 9.91602Z" stroke="white" stroke-linecap="round" stroke-linejoin="round"/>
</svg>
