<svg width="19" height="19" viewBox="0 0 19 19" fill="none" xmlns="http://www.w3.org/2000/svg">
<path d="M8.48159 16.386C9.3106 16.4658 10.0937 16.5415 10.9538 16.5415C12.4733 16.5415 14.5487 16.3364 18.397 14.8658C18.0614 14.5301 17.3234 14.2982 16.4309 14.0183C16.2067 13.948 15.9691 13.8738 15.7202 13.7924C15.4896 13.717 15.2038 13.5933 14.8871 13.4406L14.8868 13.4419C14.8818 13.439 14.8752 13.4352 14.87 13.4324C14.6392 13.3207 14.3921 13.1932 14.1304 13.0513L13.9968 13.3497C14.0414 13.4416 14.0676 13.5517 14.0676 13.6703C14.0676 13.9874 13.8815 14.2458 13.6525 14.2458C13.4238 14.2458 13.2377 13.9877 13.2377 13.6703C13.2377 13.3532 13.4238 13.0951 13.6525 13.0951C13.6707 13.0951 13.6883 13.0995 13.7058 13.1024L13.808 12.8746C13.5613 12.7364 13.3048 12.5871 13.0456 12.4338L12.8872 12.7966C12.9334 12.8894 12.9607 13.0011 12.9607 13.1223C12.9607 13.4393 12.7746 13.6974 12.5457 13.6974C12.317 13.6974 12.1308 13.4393 12.1308 13.1223C12.1308 12.8052 12.317 12.5471 12.5457 12.5471C12.5623 12.5471 12.5782 12.5512 12.5944 12.5537L12.7291 12.2448C12.4778 12.0933 12.225 11.9381 11.9738 11.781L11.8511 12.0621C11.8973 12.1549 11.9246 12.2666 11.9246 12.3877C11.9246 12.7048 11.7385 12.9632 11.5096 12.9632C11.2809 12.9632 11.0947 12.7051 11.0947 12.3877C11.0947 12.0703 11.2809 11.8125 11.5096 11.8125C11.5262 11.8125 11.5421 11.8166 11.5583 11.8192L11.6609 11.5838C11.4065 11.4226 11.1555 11.2616 10.9129 11.1036L10.815 11.3279C10.8612 11.4207 10.8885 11.5324 10.8885 11.6535C10.8885 11.9706 10.7024 12.2287 10.4737 12.2287C10.245 12.2287 10.0586 11.9706 10.0586 11.6535C10.0586 11.3364 10.2448 11.0783 10.4737 11.0783C10.4903 11.0783 10.5062 11.0824 10.5222 11.085L10.6029 10.8997C10.3412 10.7268 10.0939 10.5606 9.86222 10.4028L9.77893 10.5934C9.82513 10.6861 9.85243 10.7978 9.85243 10.919C9.85243 11.2361 9.66629 11.4942 9.43758 11.4942C9.20888 11.4942 9.02251 11.2361 9.02251 10.919C9.02251 10.6019 9.20866 10.3438 9.43758 10.3438C9.4542 10.3438 9.47013 10.3479 9.48606 10.3504L9.55524 10.1924C9.35634 10.0545 9.17111 9.92448 9.01272 9.81058C8.94605 9.76262 8.8821 9.72286 8.81884 9.685L8.74306 9.85917C8.78903 9.95193 8.81633 10.0639 8.81633 10.1848C8.81633 10.5019 8.63019 10.76 8.40148 10.76C8.17278 10.76 7.98641 10.5019 7.98641 10.1848C7.98641 9.86769 8.17256 9.60928 8.40148 9.60928C8.4181 9.60928 8.43403 9.61338 8.45018 9.6159L8.4891 9.52661C7.5793 9.19406 7.12144 9.93962 7.09936 9.97749C5.95972 11.5361 4.42617 12.1473 2.98523 11.633C2.35716 11.4087 1.98759 11.0272 1.69062 10.7208C1.3891 10.4097 1.23322 10.264 0.995868 10.3391C0.730074 10.4236 0.459728 12.8197 0.40625 15.5167C1.02386 15.694 2.85006 16.1335 6.01115 16.2134C6.92482 16.2358 7.71629 16.3121 8.48159 16.386Z" fill="white"/>
<path d="M8.32812 10.1843C8.32812 10.2405 8.36112 10.2862 8.40186 10.2862C8.42848 10.2862 8.44782 10.2632 8.46057 10.2335L8.34292 10.1348C8.33632 10.1502 8.32812 10.1651 8.32812 10.1843Z" fill="white"/>
<path d="M9.36719 10.9187C9.36719 10.9748 9.40018 11.0206 9.44092 11.0206C9.46754 11.0206 9.48689 10.9976 9.49963 10.9679L9.38198 10.8691C9.37538 10.8846 9.36719 10.8994 9.36719 10.9187Z" fill="white"/>
<path d="M10.4062 11.6531C10.4062 11.7092 10.4392 11.755 10.48 11.755C10.5066 11.755 10.5259 11.7319 10.5387 11.7023L10.421 11.6035C10.4142 11.6193 10.4062 11.6338 10.4062 11.6531Z" fill="white"/>
<path d="M11.4375 12.3871C11.4375 12.4436 11.4705 12.4893 11.511 12.4893C11.5379 12.4893 11.557 12.4663 11.5699 12.4366L11.4523 12.3379C11.4457 12.3534 11.4375 12.3679 11.4375 12.3871Z" fill="white"/>
<path d="M12.4688 13.1238C12.4688 13.1799 12.5017 13.2257 12.5423 13.2257C12.5691 13.2257 12.5882 13.2026 12.6012 13.173L12.4835 13.0742C12.4769 13.09 12.4688 13.1045 12.4688 13.1238Z" fill="white"/>
<path d="M11.0937 18.1026C10.1685 18.1026 9.32011 18.024 8.43284 17.9423C7.64638 17.8697 6.83329 17.7946 5.91325 17.7719C2.48659 17.6874 0.603955 17.2153 0.0304935 17.0456C0.00933009 17.3873 0.00204808 17.7255 0 17.9656C0.499503 18.1165 2.447 18.6323 5.9194 18.7178C6.79666 18.7393 7.57538 18.8033 8.32862 18.8652C9.17834 18.9349 9.98096 19.0009 10.8518 19.0009H10.8525C12.532 19.0009 14.8126 18.7866 18.9952 17.2103C19.0048 16.8853 18.9993 16.6114 18.9848 16.3789C15.3119 17.7558 13.0326 18.1026 11.0937 18.1026Z" fill="white"/>
<path d="M13.5781 13.6693C13.5781 13.7258 13.6111 13.7715 13.6516 13.7715C13.678 13.7715 13.6974 13.7488 13.7101 13.7198L13.5931 13.6191C13.5861 13.6346 13.5781 13.6497 13.5781 13.6693Z" fill="white"/>
<path d="M6.84299 9.6602C6.84185 9.6602 7.42533 8.69093 8.52196 9.05314C8.05204 8.71207 7.7157 8.46344 7.60419 8.37415C7.27718 8.11195 7.12813 8.31073 6.78474 8.94555C6.74628 9.01686 6.70714 9.08911 6.66686 9.16105C6.50415 9.45101 6.53715 9.76747 6.59085 9.97824C6.67642 9.87696 6.76107 9.77221 6.84299 9.6602Z" fill="white"/>
<path d="M8.454 17.4697C11.1763 17.7212 13.5332 17.937 18.9336 15.9073C18.868 15.4921 18.767 15.3018 18.6985 15.2422C15.4957 16.4844 13.1764 17.0148 10.9524 17.0148C10.0804 17.0148 9.29144 16.9387 8.45628 16.858C7.6953 16.7844 6.90838 16.7084 6.00268 16.6857C2.52049 16.5977 0.670627 16.089 0.197066 15.9392C0.139264 16.0972 0.0992131 16.3238 0.0703125 16.5718C0.579601 16.7229 2.47658 17.2132 5.9178 17.2978C6.84626 17.3211 7.66344 17.3965 8.454 17.4697Z" fill="white"/>
<path d="M10.5184 2.61599C9.6894 2.53616 8.90635 2.46044 8.04616 2.46044C6.52671 2.46044 4.45133 2.66553 0.602991 4.13615C0.938648 4.47186 1.67664 4.70377 2.56915 4.98363C2.79329 5.05399 3.03087 5.12814 3.27983 5.20954C3.51035 5.28495 3.79617 5.40864 4.11294 5.56135L4.11317 5.56008C4.11817 5.56292 4.12477 5.56671 4.13001 5.56955C4.36076 5.68124 4.60789 5.80871 4.86959 5.9507L5.00317 5.65222C4.95857 5.5604 4.9324 5.45028 4.9324 5.33165C4.9324 5.01455 5.11854 4.75615 5.34747 4.75615C5.57618 4.75615 5.76232 5.01424 5.76232 5.33165C5.76232 5.64874 5.57618 5.90684 5.34747 5.90684C5.32927 5.90684 5.31175 5.90242 5.29422 5.89958L5.19205 6.12738C5.43873 6.26558 5.69519 6.41482 5.95439 6.56816L6.11277 6.20532C6.06658 6.11256 6.03927 6.00086 6.03927 5.8797C6.03927 5.56261 6.22542 5.30452 6.45435 5.30452C6.68305 5.30452 6.86919 5.56261 6.86919 5.8797C6.86919 6.1968 6.68305 6.45489 6.45435 6.45489C6.43773 6.45489 6.4218 6.45079 6.40565 6.44827L6.27093 6.75716C6.52216 6.90861 6.77498 7.06384 7.02621 7.22097L7.14887 6.93984C7.10268 6.84708 7.07537 6.73539 7.07537 6.61423C7.07537 6.29713 7.26152 6.03872 7.49045 6.03872C7.71915 6.03872 7.90529 6.29682 7.90529 6.61423C7.90529 6.93164 7.71915 7.18942 7.49045 7.18942C7.47383 7.18942 7.4579 7.18531 7.44175 7.18279L7.33911 7.41817C7.59353 7.5794 7.84453 7.74031 8.08712 7.89838L8.18497 7.67405C8.13877 7.58129 8.11147 7.4696 8.11147 7.34844C8.11147 7.03134 8.29761 6.77325 8.52632 6.77325C8.75502 6.77325 8.94139 7.03134 8.94139 7.34844C8.94139 7.66553 8.75525 7.92363 8.52632 7.92363C8.5097 7.92363 8.49378 7.91952 8.47785 7.917L8.39706 8.10221C8.65876 8.27511 8.90612 8.44139 9.13778 8.59915L9.22107 8.40858C9.17487 8.31581 9.14757 8.20412 9.14757 8.08296C9.14757 7.76587 9.33371 7.50777 9.56242 7.50777C9.79112 7.50777 9.97749 7.76587 9.97749 8.08296C9.97749 8.40006 9.79134 8.65815 9.56242 8.65815C9.5458 8.65815 9.52987 8.65405 9.51394 8.65152L9.44476 8.8096C9.64366 8.94748 9.82889 9.07747 9.98728 9.19138C10.054 9.23933 10.1179 9.27909 10.1812 9.31695L10.2569 9.14279C10.211 9.05002 10.1837 8.93801 10.1837 8.81717C10.1837 8.50008 10.3698 8.24198 10.5985 8.24198C10.8272 8.24198 11.0136 8.50008 11.0136 8.81717C11.0136 9.13427 10.8274 9.39268 10.5985 9.39268C10.5819 9.39268 10.566 9.38857 10.5498 9.38605L10.5109 9.47534C11.4207 9.8079 11.8786 9.06233 11.9006 9.02447C13.0403 7.46581 14.5738 6.85465 16.0148 7.36895C16.6428 7.59328 17.0124 7.97474 17.3094 8.28111C17.6109 8.59221 17.7668 8.73798 18.0041 8.66288C18.2699 8.57833 18.5403 6.18229 18.5938 3.48524C17.9761 3.30792 16.1499 2.8684 12.9888 2.78858C12.0752 2.76618 11.2837 2.68982 10.5184 2.61599Z" fill="white"/>
<path d="M10.6719 8.81765C10.6719 8.76149 10.6389 8.71574 10.5981 8.71574C10.5715 8.71574 10.5522 8.73877 10.5394 8.76843L10.6571 8.86719C10.6637 8.85173 10.6719 8.8369 10.6719 8.81765Z" fill="white"/>
<path d="M9.63281 8.08328C9.63281 8.02711 9.59982 7.98136 9.55908 7.98136C9.53246 7.98136 9.51311 8.0044 9.50037 8.03406L9.61802 8.13281C9.62462 8.11735 9.63281 8.10252 9.63281 8.08328Z" fill="white"/>
<path d="M8.59375 7.3489C8.59375 7.29274 8.56075 7.24699 8.52002 7.24699C8.49339 7.24699 8.47405 7.27002 8.46131 7.29968L8.57896 7.39844C8.58579 7.38266 8.59375 7.36815 8.59375 7.3489Z" fill="white"/>
<path d="M7.5625 6.61484C7.5625 6.55836 7.5295 6.51261 7.489 6.51261C7.46214 6.51261 7.44303 6.53565 7.43006 6.56531L7.54771 6.66406C7.55431 6.6486 7.5625 6.63409 7.5625 6.61484Z" fill="white"/>
<path d="M6.53125 5.8782C6.53125 5.82204 6.49825 5.77629 6.45775 5.77629C6.43089 5.77629 6.41178 5.79932 6.39881 5.82898L6.51646 5.92773C6.52306 5.91196 6.53125 5.89745 6.53125 5.8782Z" fill="white"/>
<path d="M7.90625 0.899375C8.83153 0.899375 9.67989 0.977939 10.5672 1.05966C11.3536 1.13223 12.1667 1.20732 13.0867 1.23004C16.5134 1.3146 18.396 1.78661 18.9695 1.95636C18.9907 1.61465 18.998 1.27642 19 1.03631C18.5005 0.885492 16.553 0.36962 13.0806 0.284115C12.2033 0.26266 11.4246 0.198611 10.6714 0.13677C9.82166 0.0670402 9.01904 0.00109696 8.14815 0.00109696H8.14747C6.46805 0.00109696 4.1874 0.215333 0.00477219 1.79166C-0.00478554 2.11664 0.000675201 2.39051 0.0152397 2.62305C3.68812 1.24613 5.96741 0.899375 7.90625 0.899375Z" fill="white"/>
<path d="M5.42188 5.33265C5.42188 5.27617 5.38888 5.23042 5.34837 5.23042C5.32197 5.23042 5.30263 5.25313 5.28989 5.28216L5.40686 5.38281C5.41391 5.36735 5.42188 5.35221 5.42188 5.33265Z" fill="white"/>
<path d="M12.157 9.34176C12.1581 9.34176 11.5747 10.311 10.478 9.94881C10.948 10.2899 11.2843 10.5385 11.3958 10.6278C11.7228 10.89 11.8719 10.6912 12.2153 10.0564C12.2537 9.9851 12.2929 9.91284 12.3331 9.8409C12.4959 9.55094 12.4629 9.23448 12.4091 9.02371C12.3236 9.12499 12.2389 9.22975 12.157 9.34176Z" fill="white"/>
<path d="M10.546 1.53221C7.82365 1.28074 5.46677 1.06493 0.0664482 3.09465C0.131987 3.50988 0.233025 3.70013 0.301521 3.75977C3.50426 2.51757 5.82359 1.98719 8.04757 1.98719C8.9196 1.98719 9.70856 2.06323 10.5437 2.144C11.3047 2.21752 12.0916 2.29356 12.9973 2.31627C16.4795 2.4043 18.3294 2.91292 18.8029 3.06279C18.8607 2.90471 18.9008 2.67817 18.9297 2.43017C18.4204 2.27904 16.5234 1.78873 13.0822 1.70417C12.1537 1.68082 11.3366 1.60541 10.546 1.53221Z" fill="white"/>
</svg>
