<svg width="15" height="18" viewBox="0 0 15 18" fill="none" xmlns="http://www.w3.org/2000/svg">
<path d="M9.86133 4.73106H2.21494C2.10821 4.73106 2.00584 4.76116 1.93037 4.81474C1.8549 4.86833 1.8125 4.941 1.8125 5.01678V12.1596C1.8125 12.2354 1.8549 12.3081 1.93037 12.3617C2.00584 12.4152 2.10821 12.4453 2.21494 12.4453H9.86133C9.96807 12.4453 10.0704 12.4152 10.1459 12.3617C10.2214 12.3081 10.2638 12.2354 10.2638 12.1596V5.01678C10.2638 4.941 10.2214 4.86833 10.1459 4.81474C10.0704 4.76116 9.96807 4.73106 9.86133 4.73106ZM4.18439 7.77445L6.59586 6.4427C6.68028 6.3979 6.78607 6.37839 6.89051 6.38837C6.99496 6.39834 7.08973 6.437 7.15447 6.49604C7.21921 6.55508 7.24875 6.62979 7.23675 6.70412C7.22475 6.77845 7.17217 6.84648 7.0903 6.89359L4.67879 8.22534C4.60833 8.26446 4.52143 8.28568 4.43198 8.28561C4.34885 8.28456 4.26818 8.26538 4.20093 8.23067C4.13368 8.19596 4.08311 8.1474 4.05607 8.09158C4.02903 8.03576 4.02685 7.97538 4.0498 7.91865C4.07276 7.86192 4.11975 7.81157 4.18439 7.77445ZM8.29449 9.17931L5.883 10.511C5.79859 10.5558 5.69282 10.5753 5.5884 10.5653C5.48399 10.5553 5.38925 10.5167 5.32453 10.4576C5.2598 10.3986 5.23025 10.3239 5.24223 10.2496C5.2542 10.1753 5.30674 10.1073 5.38856 10.0602L7.80007 8.72841C7.88448 8.68361 7.99027 8.6641 8.09472 8.67407C8.19917 8.68404 8.29395 8.72271 8.35869 8.78175C8.42343 8.84079 8.45297 8.9155 8.44096 8.98984C8.42896 9.06417 8.37637 9.1322 8.29449 9.17931ZM8.29763 7.72032L4.54635 9.79175C4.47589 9.83087 4.38899 9.85209 4.29955 9.85202C4.21642 9.85097 4.13575 9.83179 4.06851 9.79708C4.00126 9.76236 3.95069 9.7138 3.92365 9.65798C3.89661 9.60217 3.89442 9.54179 3.91738 9.48506C3.94033 9.42833 3.98731 9.37798 4.05195 9.34086L7.8032 7.26943C7.88761 7.2247 7.99337 7.20524 8.09776 7.21524C8.20215 7.22523 8.29687 7.26388 8.36158 7.32289C8.42628 7.3819 8.45583 7.45657 8.44387 7.53087C8.43192 7.60518 8.37942 7.67319 8.29763 7.72032ZM13.1643 3.34475L14.0179 2.73873C14.091 2.6848 14.1313 2.61268 14.1303 2.53785C14.1293 2.46303 14.087 2.39147 14.0124 2.33856C13.9379 2.28565 13.8371 2.25561 13.7317 2.25489C13.6263 2.25417 13.5247 2.28284 13.4488 2.33473L12.5952 2.94073C12.5221 2.99465 12.4818 3.06677 12.4828 3.14158C12.4838 3.2164 12.5261 3.28795 12.6007 3.34086C12.6752 3.39377 12.7759 3.42381 12.8813 3.42454C12.9867 3.42527 13.0883 3.39662 13.1643 3.34475ZM12.1609 2.77556V1.91842C12.1594 1.84334 12.1164 1.7717 12.041 1.71899C11.9657 1.66627 11.8642 1.63672 11.7585 1.63672C11.6527 1.63672 11.5512 1.66627 11.4759 1.71899C11.4006 1.7717 11.3575 1.84334 11.356 1.91842V2.77556C11.3575 2.85064 11.4006 2.92228 11.4759 2.975C11.5512 3.02771 11.6527 3.05727 11.7585 3.05727C11.8642 3.05727 11.9657 3.02771 12.041 2.975C12.1164 2.92228 12.1594 2.85064 12.1609 2.77556ZM14.6042 3.6528H13.3969C13.2912 3.65386 13.1903 3.68443 13.116 3.7379C13.0418 3.79137 13.0001 3.86344 13.0001 3.93852C13.0001 4.0136 13.0418 4.08567 13.116 4.13914C13.1903 4.1926 13.2912 4.22317 13.3969 4.22423H14.6042C14.71 4.22316 14.8109 4.1926 14.8852 4.13913C14.9594 4.08566 15.001 4.0136 15.001 3.93851C15.001 3.86343 14.9594 3.79136 14.8852 3.7379C14.8109 3.68443 14.71 3.65386 14.6042 3.6528Z" fill="white"/>
<path d="M12.0733 6.57143V4.57143C12.0728 4.26842 11.9031 3.9779 11.6013 3.76364C11.2995 3.54938 10.8903 3.42887 10.4635 3.42857C10.4631 3.20132 10.3358 2.98345 10.1095 2.82275C9.88314 2.66206 9.57625 2.57168 9.25616 2.57143V1.14286C9.25573 0.839845 9.086 0.549331 8.7842 0.335069C8.4824 0.120808 8.0732 0.000302558 7.64639 0H4.42686C4.00005 0.000302558 3.59085 0.120808 3.28905 0.335069C2.98725 0.549331 2.81752 0.839845 2.81709 1.14286V2.57143C2.497 2.57168 2.19011 2.66206 1.96377 2.82275C1.73743 2.98345 1.61012 3.20132 1.60977 3.42857C1.18296 3.42887 0.773758 3.54938 0.471961 3.76364C0.170163 3.9779 0.000426167 4.26842 0 4.57143V12.5714C0.000426167 12.8744 0.170163 13.165 0.471961 13.3792C0.773758 13.5935 1.18296 13.714 1.60977 13.7143C1.61012 13.9415 1.73743 14.1594 1.96377 14.3201C2.19011 14.4808 2.497 14.5712 2.81709 14.5714V16C2.81752 16.303 2.98725 16.5935 3.28905 16.8078C3.59085 17.022 4.00005 17.1426 4.42686 17.1429H7.64639C8.0732 17.1426 8.4824 17.022 8.7842 16.8078C9.086 16.5935 9.25573 16.303 9.25616 16V14.5714C9.57625 14.5712 9.88314 14.4808 10.1095 14.3201C10.3358 14.1594 10.4631 13.9415 10.4635 13.7143C10.8903 13.714 11.2995 13.5935 11.6013 13.3792C11.9031 13.165 12.0728 12.8744 12.0733 12.5714V10.5714C12.3933 10.5712 12.7002 10.4808 12.9266 10.3201C13.1529 10.1594 13.2802 9.94154 13.2806 9.71428V7.42857C13.2802 7.20132 13.1529 6.98345 12.9266 6.82275C12.7002 6.66206 12.3933 6.57168 12.0733 6.57143ZM4.42686 0.571429H7.64639C7.85978 0.571625 8.06434 0.631892 8.21523 0.739013C8.36611 0.846134 8.451 0.991365 8.45128 1.14286V2.57143H3.62198V2H5.63418C5.74092 2 5.84328 1.9699 5.91875 1.91632C5.99423 1.86273 6.03663 1.79006 6.03663 1.71429C6.03663 1.63851 5.99423 1.56584 5.91875 1.51226C5.84328 1.45867 5.74092 1.42857 5.63418 1.42857H3.62198V1.14286C3.62225 0.991365 3.70714 0.846134 3.85803 0.739013C4.00891 0.631892 4.21348 0.571625 4.42686 0.571429ZM8.45128 16C8.451 16.1515 8.36611 16.2967 8.21523 16.4038C8.06434 16.511 7.85978 16.5712 7.64639 16.5714H4.42686C4.21348 16.5712 4.00891 16.511 3.85803 16.4038C3.70714 16.2967 3.62225 16.1515 3.62198 16V15.7143H5.63418C5.74092 15.7143 5.84328 15.6842 5.91875 15.6306C5.99423 15.577 6.03663 15.5043 6.03663 15.4286C6.03663 15.3528 5.99423 15.2801 5.91875 15.2265C5.84328 15.173 5.74092 15.1429 5.63418 15.1429H3.62198V14.5714H8.45128V16ZM11.2684 12.5714C11.2681 12.7229 11.1832 12.8681 11.0323 12.9753C10.8814 13.0824 10.6769 13.1427 10.4635 13.1429H1.60977C1.39638 13.1427 1.19182 13.0824 1.04093 12.9753C0.890049 12.8681 0.80516 12.7229 0.804883 12.5714V4.57143C0.80516 4.41994 0.890049 4.27471 1.04093 4.16758C1.19182 4.06046 1.39638 4.0002 1.60977 4H10.4635C10.6769 4.0002 10.8814 4.06046 11.0323 4.16758C11.1832 4.27471 11.2681 4.41994 11.2684 4.57143V12.5714ZM12.4757 9.71428C12.4756 9.79005 12.4332 9.86269 12.3577 9.91626C12.2823 9.96983 12.18 9.99995 12.0733 10V9.42857C12.179 9.42751 12.2799 9.39694 12.3542 9.34347C12.4284 9.29001 12.47 9.21794 12.47 9.14286C12.47 9.06777 12.4284 8.99571 12.3542 8.94224C12.2799 8.88877 12.179 8.8582 12.0733 8.85714V8.28571C12.179 8.28465 12.2799 8.25408 12.3542 8.20062C12.4284 8.14715 12.47 8.07508 12.47 8C12.47 7.92492 12.4284 7.85285 12.3542 7.79938C12.2799 7.74592 12.179 7.71535 12.0733 7.71429V7.14286C12.18 7.14291 12.2823 7.17303 12.3577 7.2266C12.4332 7.28017 12.4756 7.35281 12.4757 7.42857V9.71428Z" fill="white"/>
</svg>
